<svg width="24" height="23" viewBox="0 0 24 23" fill="none" xmlns="http://www.w3.org/2000/svg">
<path d="M19.285 23C20.7243 23 21.891 21.8341 21.891 20.3959C21.891 18.9577 20.7243 17.7917 19.285 17.7917C17.8457 17.7917 16.679 18.9577 16.679 20.3959C16.679 21.8341 17.8457 23 19.285 23Z" fill="#030303"/>
<path d="M8.86067 23C10.2999 23 11.4667 21.8341 11.4667 20.3959C11.4667 18.9577 10.2999 17.7917 8.86067 17.7917C7.4214 17.7917 6.25464 18.9577 6.25464 20.3959C6.25464 21.8341 7.4214 23 8.86067 23Z" fill="#030303"/>
<path d="M23.0378 9.56252C22.9335 9.56252 22.725 9.56252 22.5165 9.66667C21.5783 10.1875 20.4316 10.5 19.285 10.5C15.5322 10.5 12.5092 7.47917 12.5092 3.72917C12.5092 3.41667 12.3007 3.20832 11.9879 3.20832H4.69094L4.16971 0.500024C4.06548 0.291675 3.85698 0.083374 3.64848 0.083374H0.521183C0.208503 0.083374 0 0.291675 0 0.604174C0 0.916674 0.208503 1.12502 0.521232 1.12502H3.23157L5.73341 13.8334C6.15036 15.5 7.60973 16.75 9.38188 16.75H21.3698C21.6826 16.75 21.8911 16.5417 21.8911 16.2292C21.8911 15.9167 21.6826 15.7083 21.3698 15.7083H9.38188C8.54792 15.7083 7.71401 15.2917 7.297 14.5625L22.5165 12.4792C22.725 12.4792 22.9335 12.2708 22.9335 12.0625L23.2462 10.0834C23.2462 9.87502 23.2462 9.66667 23.0378 9.56252Z" fill="#030303"/>
</svg>
