<svg width="1180" height="345" viewBox="0 0 1180 345" fill="none" xmlns="http://www.w3.org/2000/svg">
<path fill-rule="evenodd" clip-rule="evenodd" d="M558.948 442.031C455.655 459.893 319.112 371.543 198.271 331.022C95.3776 296.52 -36.2765 273.911 -94.663 222.861C-152.306 172.462 -89.2083 130.72 -85.2957 83.0864C-81.9091 41.8551 -99.2937 -1.25348 -73.3017 -37.2038C-38.3363 -85.5656 -12.4518 -141.712 89.4441 -158.602C202.494 -177.341 354.65 -166.378 492.37 -130.966C632.857 -94.843 797.379 -34.5495 834.628 33.007C873.386 103.297 720.554 131.576 666.273 184.424C640.29 209.721 612.051 232.324 599.864 261.575C575.17 320.848 674.43 422.061 558.948 442.031Z" fill="url(#paint0_linear_1_136)"/>
<path fill-rule="evenodd" clip-rule="evenodd" d="M153.036 210.586C248.864 223.97 232.238 291.312 308.392 327.095C391.303 366.053 579.673 376.537 595.76 418.611C612.541 462.502 437.307 443.216 358.423 457.948C319.444 465.227 301.835 484.861 251.132 482.971C203.477 481.194 154.372 454.335 104.208 448.469C26.4367 439.375 -34.803 460.178 -111.919 440.517C-199.614 418.159 -285.089 378.956 -314.456 341.729C-344.324 303.867 -326.129 264.652 -260.241 252.497C-195.448 240.543 -73.1122 291.209 -0.943668 283.89C83.5625 275.32 48.6704 196.009 153.036 210.586Z" fill="url(#paint1_angular_1_136)"/>
<defs>
<linearGradient id="paint0_linear_1_136" x1="496.373" y1="303.977" x2="476.352" y2="364.259" gradientUnits="userSpaceOnUse">
<stop stop-color="#CC4CEC"/>
<stop offset="0.815028" stop-color="#BE11E9"/>
</linearGradient>
<radialGradient id="paint1_angular_1_136" cx="0" cy="0" r="1" gradientUnits="userSpaceOnUse" gradientTransform="translate(214.664 384.702) rotate(18.8999) scale(101.718 68.8322)">
<stop offset="0.182169" stop-color="#CC4CEC"/>
<stop offset="0.973273" stop-color="#CC4CEC"/>
</radialGradient>
</defs>
</svg>
